<mxfile host="app.diagrams.net" modified="2023-05-30T11:38:24.704Z" agent="Mozilla/5.0 (Macintosh; Intel Mac OS X 10_15_7) AppleWebKit/537.36 (KHTML, like Gecko) Chrome/113.0.0.0 Safari/537.36" etag="bBVmTV3BA4LUT6ygjmkB" version="21.3.4" type="github">
  <diagram name="第 1 页" id="Fbihhg92MvRgJRtighSf">
    <mxGraphModel dx="1246" dy="580" grid="1" gridSize="10" guides="1" tooltips="1" connect="1" arrows="1" fold="1" page="1" pageScale="1" pageWidth="827" pageHeight="1169" math="0" shadow="0">
      <root>
        <mxCell id="0" />
        <mxCell id="1" parent="0" />
        <mxCell id="SIuLATBYy6BGo_daEX-A-12" value="" style="edgeStyle=orthogonalEdgeStyle;rounded=0;orthogonalLoop=1;jettySize=auto;html=1;" edge="1" parent="1" source="SIuLATBYy6BGo_daEX-A-1" target="SIuLATBYy6BGo_daEX-A-6">
          <mxGeometry relative="1" as="geometry" />
        </mxCell>
        <mxCell id="SIuLATBYy6BGo_daEX-A-1" value="&lt;div style=&quot;background-color: rgb(255, 255, 255); color: rgb(8, 8, 8); font-family: &amp;quot;JetBrains Mono&amp;quot;, monospace; font-size: 9.8pt;&quot;&gt;ProcessSendGiftEvent&lt;/div&gt;" style="rounded=1;whiteSpace=wrap;html=1;" vertex="1" parent="1">
          <mxGeometry x="320" y="110" width="176" height="60" as="geometry" />
        </mxCell>
        <mxCell id="SIuLATBYy6BGo_daEX-A-11" value="" style="edgeStyle=orthogonalEdgeStyle;rounded=0;orthogonalLoop=1;jettySize=auto;html=1;" edge="1" parent="1" source="SIuLATBYy6BGo_daEX-A-5" target="SIuLATBYy6BGo_daEX-A-1">
          <mxGeometry relative="1" as="geometry" />
        </mxCell>
        <mxCell id="SIuLATBYy6BGo_daEX-A-5" value="发送礼物入口&lt;br&gt;consumer_task_sendgift_event" style="rounded=1;whiteSpace=wrap;html=1;" vertex="1" parent="1">
          <mxGeometry x="320" y="10" width="176" height="60" as="geometry" />
        </mxCell>
        <mxCell id="SIuLATBYy6BGo_daEX-A-13" value="" style="edgeStyle=orthogonalEdgeStyle;rounded=0;orthogonalLoop=1;jettySize=auto;html=1;" edge="1" parent="1" source="SIuLATBYy6BGo_daEX-A-6" target="SIuLATBYy6BGo_daEX-A-9">
          <mxGeometry relative="1" as="geometry" />
        </mxCell>
        <mxCell id="SIuLATBYy6BGo_daEX-A-6" value="还有一个架构师的hc" style="rounded=1;whiteSpace=wrap;html=1;" vertex="1" parent="1">
          <mxGeometry x="320" y="200" width="176" height="60" as="geometry" />
        </mxCell>
        <mxCell id="SIuLATBYy6BGo_daEX-A-8" value="还有一个架构师的hc" style="rounded=1;whiteSpace=wrap;html=1;" vertex="1" parent="1">
          <mxGeometry x="320" y="480" width="176" height="60" as="geometry" />
        </mxCell>
        <mxCell id="SIuLATBYy6BGo_daEX-A-14" value="" style="edgeStyle=orthogonalEdgeStyle;rounded=0;orthogonalLoop=1;jettySize=auto;html=1;" edge="1" parent="1" source="SIuLATBYy6BGo_daEX-A-9" target="SIuLATBYy6BGo_daEX-A-10">
          <mxGeometry relative="1" as="geometry" />
        </mxCell>
        <mxCell id="SIuLATBYy6BGo_daEX-A-9" value="还有一个架构师的hc" style="rounded=1;whiteSpace=wrap;html=1;" vertex="1" parent="1">
          <mxGeometry x="320" y="290" width="176" height="60" as="geometry" />
        </mxCell>
        <mxCell id="SIuLATBYy6BGo_daEX-A-15" value="" style="edgeStyle=orthogonalEdgeStyle;rounded=0;orthogonalLoop=1;jettySize=auto;html=1;" edge="1" parent="1" source="SIuLATBYy6BGo_daEX-A-10" target="SIuLATBYy6BGo_daEX-A-8">
          <mxGeometry relative="1" as="geometry" />
        </mxCell>
        <mxCell id="SIuLATBYy6BGo_daEX-A-10" value="还有一个架构师的hc" style="rounded=1;whiteSpace=wrap;html=1;" vertex="1" parent="1">
          <mxGeometry x="320" y="380" width="176" height="60" as="geometry" />
        </mxCell>
      </root>
    </mxGraphModel>
  </diagram>
</mxfile>
